Coordinates
version=1
nRows=11
nColumns=63
inDegrees=yes

Units are S.I. units (second, meters, Newtons, ...)
If the header above contains a line with 'inDegrees', this indicates whether rotational values are in degrees (yes) or radians (no).

endheader
time	pelvis_tilt	pelvis_list	pelvis_rotation	pelvis_tx	pelvis_ty	pelvis_tz	hip_flexion_r	hip_adduction_r	hip_rotation_r	knee_angle_r	knee_angle_r_beta	ankle_angle_r	subtalar_angle_r	mtp_angle_r	hip_flexion_l	hip_adduction_l	hip_rotation_l	knee_angle_l	knee_angle_l_beta	ankle_angle_l	subtalar_angle_l	mtp_angle_l	L5_S1_Flex_Ext	L5_S1_Lat_Bending	L5_S1_axial_rotation	L4_L5_Flex_Ext	L4_L5_Lat_Bending	L4_L5_axial_rotation	L3_L4_Flex_Ext	L3_L4_Lat_Bending	L3_L4_axial_rotation	L2_L3_Flex_Ext	L2_L3_Lat_Bending	L2_L3_axial_rotation	L1_L2_Flex_Ext	L1_L2_Lat_Bending	L1_L2_axial_rotation	L1_T12_Flex_Ext	L1_T12_Lat_Bending	L1_T12_axial_rotation	Abs_r3	Abs_r2	Abs_r1	Abs_t1	Abs_t2	neck_flexion	neck_bending	neck_rotation	arm_flex_r	arm_add_r	arm_rot_r	elbow_flex_r	pro_sup_r	wrist_flex_r	wrist_dev_r	arm_flex_l	arm_add_l	arm_rot_l	elbow_flex_l	pro_sup_l	wrist_flex_l	wrist_dev_l
1.555556	5.586299	-3.142057	94.154922	0.293079	0.781745	0.535748	-0.414305	3.199021	0.440549	0.370184	0.006461	15.718169	-7.823792	0.000000	2.005898	-3.925563	13.138906	7.066991	0.123342	20.441635	-16.301014	0.000000	-0.068990	0.697535	0.784724	-0.128122	0.927722	0.833769	-0.113344	1.695987	0.833769	-0.078849	1.695987	0.686634	-0.064064	1.422413	0.637588	-0.039421	1.080482	0.588543	-0.492790	7.890656	4.364401	0.000000	0.000000	27.626115	2.653791	15.314459	11.036985	-7.764566	147.395237	7.256394	3.811811	-6.707489	-3.079105	11.881461	-2.667129	129.168861	11.320351	8.468284	-5.557479	-13.979726
1.577778	5.697193	-3.201204	94.446845	0.291643	0.781654	0.536178	-0.361023	3.227374	0.057261	0.376091	0.006564	15.671828	-7.584809	0.000000	2.196142	-3.921392	13.341129	7.282755	0.127108	20.236207	-16.333431	0.000000	-0.064286	0.718252	0.767221	-0.119386	0.955275	0.815173	-0.105616	1.746357	0.815173	-0.073473	1.746357	0.671319	-0.059696	1.464659	0.623367	-0.036733	1.112572	0.575416	-0.459192	8.125007	4.267055	0.000000	0.000000	27.671830	2.283908	15.130656	10.935524	-7.792833	148.498168	6.671541	3.706852	-6.084823	-2.930463	12.053856	-2.581787	128.218192	11.421982	9.030600	-5.391818	-13.732638
1.600000	5.842161	-3.234105	94.761429	0.290137	0.781543	0.536670	-0.332460	3.287902	-0.559189	0.384458	0.006710	15.608517	-7.085949	0.000000	2.363951	-3.952303	13.504622	7.494179	0.130798	20.029232	-16.269435	0.000000	-0.060869	0.744174	0.737192	-0.113041	0.989751	0.783267	-0.100002	1.809384	0.783267	-0.069568	1.809384	0.645043	-0.056523	1.517519	0.598969	-0.034781	1.152725	0.552894	-0.434785	8.418242	4.100042	0.000000	0.000000	27.710070	1.948612	15.064369	10.848076	-7.887803	149.551710	6.197786	3.712337	-5.523065	-2.768383	12.211125	-2.449145	127.589349	11.477835	9.468907	-5.191015	-13.395885
1.622222	6.003992	-3.251450	95.055335	0.288624	0.781402	0.537195	-0.318237	3.365433	-1.144601	0.393656	0.006871	15.511538	-6.614681	0.000000	2.514112	-3.999012	13.767301	7.707672	0.134524	19.805340	-16.337348	0.000000	-0.057908	0.773254	0.701332	-0.107541	1.028428	0.745166	-0.095137	1.880090	0.745166	-0.066183	1.880090	0.613666	-0.053774	1.576820	0.569833	-0.033089	1.197771	0.525999	-0.413632	8.747206	3.900600	0.000000	0.000000	27.741273	1.639527	15.125542	10.772413	-7.997376	150.652538	5.777009	3.533342	-4.997441	-2.607822	12.357767	-2.305172	126.844509	11.556089	10.075040	-4.998814	-12.881433
1.644444	6.198669	-3.259278	95.364251	0.287038	0.781249	0.537758	-0.308719	3.470292	-1.797037	0.403800	0.007048	15.396982	-6.058903	0.000000	2.659380	-4.074309	14.073112	7.913785	0.138122	19.588429	-16.420465	0.000000	-0.055447	0.807413	0.650917	-0.102971	1.073859	0.691599	-0.091094	1.963143	0.691599	-0.063370	1.963143	0.569552	-0.051488	1.646476	0.528870	-0.031682	1.250682	0.488188	-0.396052	9.133614	3.620205	0.000000	0.000000	27.767231	1.338870	15.293770	10.698584	-8.148405	151.793663	5.399770	3.404395	-4.589464	-2.458203	12.476314	-2.099794	126.469534	11.542149	10.577264	-4.839818	-12.262270
1.666667	6.399041	-3.286818	95.694544	0.285402	0.781052	0.538304	-0.277617	3.575367	-2.494891	0.414011	0.007226	15.298074	-5.458956	0.000000	2.819375	-4.150920	14.425407	8.091274	0.141219	19.403568	-16.509562	0.000000	-0.050268	0.842334	0.580104	-0.093353	1.120304	0.616360	-0.082585	2.048051	0.616360	-0.057451	2.048051	0.507591	-0.046679	1.717688	0.471334	-0.028723	1.304775	0.435078	-0.359059	9.528651	3.226362	0.000000	0.000000	27.782629	1.066591	15.550654	10.641369	-8.311182	153.041099	5.050082	3.409277	-4.240174	-2.303668	12.539445	-1.870280	126.344252	11.444545	10.845271	-4.733266	-11.681366
1.688889	6.600293	-3.334149	96.057376	0.283733	0.780816	0.538820	-0.227141	3.678147	-3.143358	0.421794	0.007362	15.197575	-4.960723	0.000000	2.992156	-4.227011	14.841722	8.229193	0.143627	19.262224	-16.603239	0.000000	-0.044646	0.876552	0.486675	-0.082911	1.165814	0.517092	-0.073348	2.131248	0.517092	-0.051025	2.131248	0.425841	-0.041458	1.787464	0.395424	-0.025511	1.357779	0.365006	-0.318899	9.915729	2.706742	0.000000	0.000000	27.785621	0.873600	15.932401	10.623879	-8.448656	154.652656	4.701123	3.406476	-3.972014	-2.154441	12.546688	-1.647243	126.183899	11.292700	11.108790	-4.722834	-11.185354
1.711111	6.776641	-3.415892	96.456408	0.282050	0.780515	0.539302	-0.147137	3.751070	-3.849396	0.427298	0.007458	15.161449	-4.402994	0.000000	3.191455	-4.277325	15.272738	8.323468	0.145272	19.191809	-16.645006	0.000000	-0.037021	0.905154	0.378351	-0.068752	1.203855	0.401998	-0.060822	2.200792	0.401998	-0.042312	2.200792	0.331057	-0.034378	1.845791	0.307410	-0.021154	1.402084	0.283763	-0.264439	10.239288	2.104273	0.000000	0.000000	27.777956	0.716043	16.304889	10.631121	-8.550414	156.388484	4.361241	3.614974	-3.791760	-2.005710	12.513964	-1.440663	126.195370	11.083608	11.242963	-4.788626	-10.841331
1.733333	6.928458	-3.525965	96.884267	0.280367	0.780154	0.539765	-0.042611	3.798292	-4.605916	0.434667	0.007586	15.201288	-3.796091	0.000000	3.417063	-4.305639	15.730390	8.383246	0.146315	19.215383	-16.639235	0.000000	-0.029758	0.927890	0.263853	-0.055264	1.234094	0.280344	-0.048889	2.256073	0.280344	-0.034010	2.256073	0.230872	-0.027633	1.892154	0.214381	-0.017004	1.437302	0.197890	-0.212559	10.496481	1.467473	0.000000	0.000000	27.765988	0.655603	16.760533	10.683624	-8.603878	158.387400	4.019205	3.910033	-3.661961	-1.865640	12.453883	-1.253693	126.227754	10.834427	11.298451	-4.887002	-10.633390
1.755556	7.032111	-3.687642	97.342047	0.278701	0.779709	0.540182	0.100361	3.792275	-5.331350	0.441208	0.007701	15.325198	-3.240132	0.000000	3.669710	-4.288215	16.161028	8.367560	0.146041	19.315910	-16.541948	0.000000	-0.018325	0.939747	0.145862	-0.034032	1.249863	0.154978	-0.030106	2.284900	0.154978	-0.020944	2.284900	0.127629	-0.017017	1.916332	0.118513	-0.010471	1.455668	0.109396	-0.130895	10.630604	0.811239	0.000000	0.000000	27.762588	0.646483	17.198292	10.772064	-8.596412	160.694736	3.685468	4.155478	-3.582216	-1.704072	12.371909	-1.110468	126.403997	10.557082	11.159785	-4.938813	-10.590211
1.777778	7.093564	-3.888286	97.831837	0.277066	0.779205	0.540549	0.267784	3.740870	-6.066944	0.448199	0.007823	15.535441	-2.687621	0.000000	3.932961	-4.232053	16.611328	8.267233	0.144290	19.475773	-16.413904	0.000000	-0.003583	0.939950	0.032060	-0.006654	1.250133	0.034064	-0.005886	2.285394	0.034064	-0.004095	2.285394	0.028053	-0.003327	1.916746	0.026049	-0.002047	1.455982	0.024045	-0.025592	10.632900	0.178310	0.000000	0.000000	27.762303	0.600910	17.453563	10.893387	-8.536706	162.773918	3.424835	4.694231	-3.663919	-1.556040	12.289433	-1.015225	126.743744	10.276965	10.951280	-5.051456	-10.700244
